<?xml version="1.0" encoding="UTF-8" standalone="no"?>
<svg width="131px" height="66px" viewBox="0 0 131 66" version="1.1" xmlns="http://www.w3.org/2000/svg" xmlns:xlink="http://www.w3.org/1999/xlink" xmlns:sketch="http://www.bohemiancoding.com/sketch/ns">
    <!-- Generator: Sketch 3.5.2 (25235) - http://www.bohemiancoding.com/sketch -->
    <title>helicopter</title>
    <desc>Created with Sketch.</desc>
    <defs></defs>
    <g id="Page-1" stroke="none" stroke-width="1" fill="none" fill-rule="evenodd" sketch:type="MSPage">
        <g id="Day-14-Copy" sketch:type="MSArtboardGroup" transform="translate(-121.000000, -167.000000)">
            <g id="helicopter" sketch:type="MSLayerGroup" transform="translate(121.000000, 167.000000)">
                <path d="M11.9013672,4.43066406 L18.6445312,13.5175781 L89.9814453,14.8144531 L103.015625,15.1855469 L114.816406,22.5400391 L124.709961,33.7861328 L128.785156,44.5869141 L126.248047,49.7099609 L117.410156,51.8769531 L85.4707031,52.9892578 L76.078125,51.6269531 L64.8320312,45.078125 L57.3564453,32.8505859 L17.3212891,26.1806641 L15.4033203,29.2832031 L8.04882812,29.2832031 L6.87207031,25.1425781 L8.35449219,17.1113281 L4.46386719,3.44824219 L11.9013672,4.43066406 Z" id="Path-135" fill="#FFCE4E" sketch:type="MSShapeGroup"></path>
                <path d="M104.954702,61.3371497 L79.2829706,61.3371497 L79.2829706,54.4179116 C79.3290954,54.4271268 79.3752202,54.433709 79.421345,54.4402912 C84.0417295,54.989249 90.0010504,55.2788671 96.6522429,55.2788671 L96.6548786,55.2788671 C99.0929024,55.2788671 101.561237,55.2393737 104.028253,55.1590705 L104.954702,55.1143114 L104.954702,61.3371497 Z M74.3107199,48.6861075 C67.1099837,46.1545826 62.5831665,38.4836541 60.0489396,32.4727635 C59.7445161,31.7526678 59.101405,31.2326718 58.3317802,31.0865463 L18.3178793,23.5051361 C17.3874767,23.3234666 16.4425778,23.7302483 15.9259803,24.524065 L13.871451,27.6769522 L9.51727232,27.4202453 L11.3069136,18.609275 C11.4031167,18.1393039 11.3504027,17.652219 11.1579964,17.2125262 L5.99597525,5.40795851 L10.9076048,5.6962601 L17.7933747,15.5419567 C18.2295833,16.1672684 18.9438584,16.5398225 19.7055761,16.5398225 L86.3466504,16.5398225 C87.4470557,18.8488681 91.0935486,26.4223796 91.6681315,27.5387254 C97.4152784,38.7127157 101.140842,40.4227785 103.469485,40.6452578 C104.103371,40.761105 106.885354,41.2376583 109.673926,41.2376583 C115.654332,41.2376583 121.332951,40.217413 125.041383,38.5270968 C126.042949,40.7413583 126.523965,42.7910641 126.261712,44.4682158 C126.114113,45.4213224 125.663408,48.3227685 119.137412,49.3035205 C116.657217,49.677391 113.41794,49.993338 109.805711,50.2197666 L103.843754,50.5001695 C101.46108,50.5778398 99.0428241,50.6173332 96.6548786,50.6173332 L96.6522429,50.6173332 C90.225085,50.6173332 84.4897988,50.3408796 80.0605026,49.8208836 L74.3107199,48.6861075 Z M93.5500223,16.5398225 C93.6080078,16.5437718 93.6686289,16.5464047 93.7279322,16.5477212 C98.8543714,16.5819487 102.710403,17.2204249 105.191915,18.4434028 C111.329146,21.4659619 118.521975,28.1284931 122.739098,34.4513813 C119.672459,35.7612446 114.783233,36.5761245 109.673926,36.5761245 C107.027681,36.5761245 104.253606,36.0482298 104.225931,36.0442804 C104.136317,36.0258502 104.044067,36.0140022 103.953136,36.00742 C102.918623,35.9323826 100.040437,33.6167548 95.8193612,25.4087165 C95.3923776,24.5780393 93.0255178,19.672963 91.5218501,16.5398225 L93.5500223,16.5398225 Z M130.766126,59.1544829 C130.204722,57.9973272 128.810436,57.5115588 127.648091,58.0736811 L120.903332,61.3371497 L109.622529,61.3371497 L109.622529,54.8957814 L110.060056,54.8747183 C113.84097,54.6390745 117.221257,54.3073302 119.831919,53.913713 C128.026315,52.6828363 130.360228,48.4873242 130.875508,45.1856787 C132.467471,34.9634786 117.644287,19.3793956 107.25567,14.2610552 C104.12841,12.7194974 99.7781848,11.9427945 93.9572382,11.8861873 C93.8873921,11.8809215 93.8162282,11.8769722 93.7437464,11.8769722 L83.9521157,11.8769722 L83.9521157,4.6628503 L125.327356,4.6628503 C126.617532,4.6628503 127.66127,3.61890895 127.66127,2.33142515 C127.66127,1.04394136 126.617532,0 125.327356,0 L37.9090478,0 C36.6201899,0 35.5751343,1.04394136 35.5751343,2.33142515 C35.5751343,3.61890895 36.6201899,4.6628503 37.9090478,4.6628503 L79.2842885,4.6628503 L79.2842885,11.8769722 L20.9232702,11.8769722 L14.0875786,2.10104717 C13.677727,1.51654533 13.024073,1.15057345 12.3111158,1.10844719 L2.47072462,0.52921113 C1.66815354,0.479186197 0.884032376,0.858322529 0.418831078,1.52312756 C-0.0450523692,2.18793258 -0.129394814,3.04757156 0.194796459,3.79004687 L6.58505451,18.4039094 L4.40796515,29.1276753 C4.27354438,29.7898474 4.43300432,30.477032 4.84549159,31.0115089 C5.25797886,31.5486187 5.88264009,31.8790466 6.55737965,31.9185399 L14.9507708,32.4108906 C15.7836524,32.4648649 16.5875413,32.0580832 17.0448355,31.3564177 L18.9847118,28.3773013 L56.2482582,35.437399 C60.4060772,44.7262392 66.162449,50.8384961 72.9480623,53.1475416 C73.0455833,53.1804528 73.1457399,53.2080981 73.2485323,53.2278448 L74.6151435,53.4977162 L74.6151435,61.3371497 L58.8641919,61.3371497 C57.5753339,61.3371497 56.5302783,62.3810911 56.5302783,63.6685748 C56.5302783,64.9560586 57.5753339,66 58.8641919,66 L121.973426,66 L129.682853,62.2691932 C130.843879,61.7083874 131.327531,60.3142715 130.766126,59.1544829 L130.766126,59.1544829 Z" id="Fill-1" fill="#4B4841" sketch:type="MSShapeGroup"></path>
            </g>
        </g>
    </g>
</svg>